<svg xmlns="http://www.w3.org/2000/svg" viewBox="0 0 1024 1024" width="1024" height="1024">
  <defs>
    <linearGradient id="bg" x1="0" y1="0" x2="1" y2="1"><stop offset="0" stop-color="#faf4e4"/><stop offset="1" stop-color="#f0e6cf"/></linearGradient>
    <radialGradient id="rim" cx="0.40" cy="0.34" r="0.82"><stop offset="0" stop-color="#ffae5f"/><stop offset="0.6" stop-color="#d85b09"/><stop offset="1" stop-color="#a8430a"/></radialGradient>
    <radialGradient id="face" cx="0.43" cy="0.39" r="0.85"><stop offset="0" stop-color="#fdf8ec"/><stop offset="1" stop-color="#f1e6ce"/></radialGradient>
  </defs>
  <rect width="1024" height="1024" fill="url(#bg)"/>
  <circle cx="512" cy="512" r="458" fill="#e4d8bb"/>
  <circle cx="512" cy="512" r="448" fill="url(#rim)"/>
  <circle cx="512" cy="512" r="360" fill="url(#face)"/>
  <circle cx="512" cy="512" r="360" fill="none" stroke="#a8430a" stroke-width="4" opacity="0.55"/>
  <g fill="#c4540a">
    <rect x="504" y="168" width="16" height="40"/>
    <rect x="504" y="168" width="16" height="40" transform="rotate(30 512 512)"/>
    <rect x="504" y="168" width="16" height="40" transform="rotate(60 512 512)"/>
    <rect x="504" y="168" width="16" height="40" transform="rotate(90 512 512)"/>
    <rect x="504" y="168" width="16" height="40" transform="rotate(120 512 512)"/>
    <rect x="504" y="168" width="16" height="40" transform="rotate(150 512 512)"/>
    <rect x="504" y="168" width="16" height="40" transform="rotate(180 512 512)"/>
    <rect x="504" y="168" width="16" height="40" transform="rotate(210 512 512)"/>
    <rect x="504" y="168" width="16" height="40" transform="rotate(240 512 512)"/>
    <rect x="504" y="168" width="16" height="40" transform="rotate(270 512 512)"/>
    <rect x="504" y="168" width="16" height="40" transform="rotate(300 512 512)"/>
    <rect x="504" y="168" width="16" height="40" transform="rotate(330 512 512)"/>
  </g>
  <circle cx="512" cy="512" r="168" fill="#3a3124" fill-opacity="1.0"/>
</svg>
